<svg width="21" height="21" viewBox="0 0 21 21" fill="none" xmlns="http://www.w3.org/2000/svg">
<path d="M6.51373 20.3477C5.96776 20.3477 5.5002 20.1532 5.11107 19.764C4.72194 19.3749 4.5277 18.9077 4.52836 18.3624C4.52836 17.8164 4.72293 17.3488 5.11206 16.9597C5.50119 16.5706 5.96842 16.3763 6.51373 16.377C7.05971 16.377 7.52727 16.5716 7.9164 16.9607C8.30553 17.3498 8.49977 17.8171 8.49911 18.3624C8.49911 18.9083 8.30454 19.3759 7.91541 19.765C7.52627 20.1542 7.05905 20.3484 6.51373 20.3477ZM16.4406 20.3477C15.8946 20.3477 15.4271 20.1532 15.0379 19.764C14.6488 19.3749 14.4546 18.9077 14.4552 18.3624C14.4552 17.8164 14.6498 17.3488 15.0389 16.9597C15.4281 16.5706 15.8953 16.3763 16.4406 16.377C16.9866 16.377 17.4541 16.5716 17.8433 16.9607C18.2324 17.3498 18.4266 17.8171 18.426 18.3624C18.426 18.9083 18.2314 19.3759 17.8423 19.765C17.4531 20.1542 16.9859 20.3484 16.4406 20.3477ZM5.66995 4.46476L8.0524 9.42819H15.0012L17.7311 4.46476H5.66995ZM4.7269 2.47939H19.369C19.7495 2.47939 20.0391 2.64914 20.2376 2.98864C20.4362 3.32814 20.4444 3.67128 20.2624 4.01805L16.7384 10.3712C16.5564 10.7021 16.3122 10.9586 16.0058 11.1406C15.6994 11.3226 15.3645 11.4136 15.0012 11.4136H7.60569L6.51373 13.3989H18.426V15.3843H6.51373C5.76922 15.3843 5.2067 15.0574 4.82617 14.4035C4.44564 13.7497 4.42909 13.1005 4.77653 12.4559L6.11666 10.0238L2.54299 2.47939H0.557617V0.494019H3.78385L4.7269 2.47939Z" fill="white"/>
</svg>
