<svg width="26" height="26" viewBox="0 0 26 26" fill="none" xmlns="http://www.w3.org/2000/svg">
<path d="M8.12286 25.8911C7.43314 25.8911 6.84248 25.6453 6.3509 25.1537C5.85932 24.6621 5.61395 24.0719 5.61478 23.383C5.61478 22.6933 5.86057 22.1026 6.35216 21.611C6.84374 21.1194 7.43397 20.8741 8.12286 20.8749C8.81258 20.8749 9.40323 21.1207 9.89481 21.6123C10.3864 22.1039 10.6318 22.6941 10.6309 23.383C10.6309 24.0727 10.3851 24.6634 9.89356 25.1549C9.40197 25.6465 8.81174 25.8919 8.12286 25.8911ZM20.6632 25.8911C19.9735 25.8911 19.3829 25.6453 18.8913 25.1537C18.3997 24.6621 18.1543 24.0719 18.1552 23.383C18.1552 22.6933 18.4009 22.1026 18.8925 21.611C19.3841 21.1194 19.9743 20.8741 20.6632 20.8749C21.353 20.8749 21.9436 21.1207 22.4352 21.6123C22.9268 22.1039 23.1721 22.6941 23.1713 23.383C23.1713 24.0727 22.9255 24.6634 22.4339 25.1549C21.9424 25.6465 21.3521 25.8919 20.6632 25.8911ZM7.05693 5.82645L10.0666 12.0966H18.8449L22.2935 5.82645H7.05693ZM5.86559 3.31838H24.3626C24.8434 3.31838 25.2091 3.53282 25.4599 3.9617C25.7107 4.39058 25.7212 4.82406 25.4913 5.26214L21.0394 13.288C20.8095 13.706 20.501 14.0299 20.114 14.2599C19.7269 14.4898 19.3039 14.6047 18.8449 14.6047H9.5023L8.12286 17.1128H23.1713V19.6209H8.12286C7.18233 19.6209 6.47171 19.2079 5.99099 18.3819C5.51028 17.5559 5.48938 16.7357 5.92829 15.9215L7.62124 12.8491L3.10671 3.31838H0.598633V0.810303H4.67425L5.86559 3.31838Z" fill="#272323"/>
</svg>
