<svg width="39" height="70" viewBox="0 0 39 70" fill="none" xmlns="http://www.w3.org/2000/svg">
<path d="M38.5043 31.1534V22.9489H36.885V20.25C36.885 18.9546 36.5611 17.7671 35.9134 16.6875C35.2657 15.608 34.0782 14.6364 33.4304 13.5568C32.4589 12.0455 31.7032 10.4262 31.2714 8.59093C30.8395 6.7557 30.9475 4.70456 30.6236 2.86934C30.2998 1.57388 29.2202 0.602292 27.8168 0.602292C24.902 0.278428 21.8793 0.0625193 18.8566 0.0625193C15.6179 -0.0454352 12.3793 0.170474 9.24863 0.818201C8.38499 1.03411 7.62931 1.78979 7.4134 2.65343C7.19749 3.51706 7.08953 5.67616 6.87362 6.97161C6.65772 9.67047 5.57817 12.2614 3.74294 14.2046L2.98726 15.0682C1.58385 16.4716 0.720215 18.3068 0.720215 20.25V48.6421C0.720215 50.6932 1.4759 52.5284 2.98726 53.9318C5.14635 55.5512 6.44181 58.0341 6.65771 60.733C6.98158 62.6762 6.65772 64.6193 7.08953 66.4546C7.4134 67.4262 8.16908 68.0739 9.14067 68.2898C12.2714 68.8296 15.51 69.0455 18.6407 69.0455C21.8793 69.1534 25.1179 68.9375 28.2486 68.2898C29.2202 68.0739 29.8679 67.3182 30.0839 66.4546C30.2998 65.5909 29.8679 61.2728 31.3793 58.6818C31.9191 57.7103 34.1861 54.2557 34.1861 54.2557C34.1861 54.2557 34.402 53.9318 34.51 53.8239C35.8054 52.4205 36.5611 50.6932 36.5611 48.75V31.1534H38.5043ZM35.2657 48.6421C35.3736 51.4489 33.2145 53.9318 30.2998 54.1478H7.4134C4.60658 53.9318 2.33953 51.5568 2.44749 48.6421V20.25C2.33953 17.4432 4.49862 14.9602 7.4134 14.7443H30.4077C33.2145 14.9602 35.4816 17.3352 35.3736 20.25V48.6421H35.2657Z" fill="#1D1D1F"/>
</svg>
