<svg width="17" height="16" viewBox="0 0 17 16" fill="none" xmlns="http://www.w3.org/2000/svg">
<path d="M11.5137 2C11.3167 2 11.1216 2.0388 10.9396 2.11418C10.7577 2.18957 10.5923 2.30006 10.453 2.43934C10.3137 2.57863 10.2032 2.74399 10.1279 2.92598C10.0525 3.10797 10.0137 3.30302 10.0137 3.5C10.0137 3.69699 10.0525 3.89204 10.1279 4.07403C10.2032 4.25602 10.3137 4.42138 10.453 4.56066C10.5923 4.69995 10.7577 4.81044 10.9396 4.88582C11.1216 4.96121 11.3167 5 11.5137 5C11.9115 5 12.293 4.84197 12.5743 4.56066C12.8556 4.27936 13.0137 3.89783 13.0137 3.5C13.0137 3.10218 12.8556 2.72065 12.5743 2.43934C12.293 2.15804 11.9115 2 11.5137 2ZM9.06367 3C9.17843 2.43486 9.48504 1.92677 9.93154 1.56181C10.378 1.19686 10.937 0.997498 11.5137 0.997498C12.0903 0.997498 12.6493 1.19686 13.0958 1.56181C13.5423 1.92677 13.8489 2.43486 13.9637 3H16.0137V4H13.9637C13.8489 4.56515 13.5423 5.07324 13.0958 5.43819C12.6493 5.80314 12.0903 6.00251 11.5137 6.00251C10.937 6.00251 10.378 5.80314 9.93154 5.43819C9.48504 5.07324 9.17843 4.56515 9.06367 4H0.0136719V3H9.06367ZM4.51367 7C4.11585 7 3.73432 7.15804 3.45301 7.43934C3.17171 7.72065 3.01367 8.10218 3.01367 8.5C3.01367 8.89783 3.17171 9.27936 3.45301 9.56066C3.73432 9.84197 4.11585 10 4.51367 10C4.9115 10 5.29303 9.84197 5.57433 9.56066C5.85564 9.27936 6.01367 8.89783 6.01367 8.5C6.01367 8.10218 5.85564 7.72065 5.57433 7.43934C5.29303 7.15804 4.9115 7 4.51367 7ZM2.06367 8C2.17843 7.43486 2.48504 6.92677 2.93154 6.56181C3.37805 6.19686 3.93699 5.9975 4.51367 5.9975C5.09035 5.9975 5.64929 6.19686 6.0958 6.56181C6.54231 6.92677 6.84891 7.43486 6.96367 8H16.0137V9H6.96367C6.84891 9.56515 6.54231 10.0732 6.0958 10.4382C5.64929 10.8031 5.09035 11.0025 4.51367 11.0025C3.93699 11.0025 3.37805 10.8031 2.93154 10.4382C2.48504 10.0732 2.17843 9.56515 2.06367 9H0.0136719V8H2.06367ZM11.5137 12C11.1158 12 10.7343 12.158 10.453 12.4393C10.1717 12.7206 10.0137 13.1022 10.0137 13.5C10.0137 13.8978 10.1717 14.2794 10.453 14.5607C10.7343 14.842 11.1158 15 11.5137 15C11.9115 15 12.293 14.842 12.5743 14.5607C12.8556 14.2794 13.0137 13.8978 13.0137 13.5C13.0137 13.1022 12.8556 12.7206 12.5743 12.4393C12.293 12.158 11.9115 12 11.5137 12ZM9.06367 13C9.17843 12.4349 9.48504 11.9268 9.93154 11.5618C10.378 11.1969 10.937 10.9975 11.5137 10.9975C12.0903 10.9975 12.6493 11.1969 13.0958 11.5618C13.5423 11.9268 13.8489 12.4349 13.9637 13H16.0137V14H13.9637C13.8489 14.5651 13.5423 15.0732 13.0958 15.4382C12.6493 15.8031 12.0903 16.0025 11.5137 16.0025C10.937 16.0025 10.378 15.8031 9.93154 15.4382C9.48504 15.0732 9.17843 14.5651 9.06367 14H0.0136719V13H9.06367Z" fill="#777777"/>
</svg>
