<svg width="69" height="71" viewBox="0 0 69 71" fill="none" xmlns="http://www.w3.org/2000/svg">
<path d="M52.6199 67.3921C52.404 69.2273 50.8926 70.6307 49.0574 70.8466H44.9551C42.904 70.6307 41.2847 69.0114 41.2847 66.9603V29.7159C44.6313 31.983 48.6256 33.1705 52.6199 32.8466V67.3921Z" fill="black"/>
<path d="M36.8589 15.0342C36.8589 23.2387 44.8475 30.4717 54.1316 29.8239C59.6373 29.716 64.8191 26.6933 67.6259 21.9433C68.9214 19.8921 68.9214 19.3523 68.9214 14.6023C68.9214 11.0398 69.2453 9.85235 67.7339 8.12507C64.1714 4.34667 60.285 0.460303 54.1316 0.244394C44.8475 -0.187424 36.8589 6.82962 36.8589 15.0342ZM62.1202 10.716C62.2282 9.85235 62.9839 9.31258 63.8475 9.42053C64.4952 9.52848 65.035 10.0683 65.143 10.716V19.4603C65.035 20.3239 64.2793 20.8637 63.4157 20.7558C62.768 20.6478 62.2282 20.108 62.1202 19.4603V10.716ZM44.8475 14.9262C44.8475 13.6308 45.9271 12.5512 47.2225 12.5512H52.0805C53.3759 12.5512 54.4555 13.6308 54.4555 14.9262C54.4555 16.2217 53.3759 17.3012 52.0805 17.3012H47.2225C45.9271 17.3012 44.8475 16.2217 44.8475 14.9262Z" fill="black"/>
<path d="M15.0518 0.244342C8.89842 0.460251 5.01206 4.34661 1.44956 8.12502C-0.0618063 9.8523 0.262058 11.0398 0.262058 14.6023C0.262058 19.3523 0.262058 19.8921 1.55751 21.9432C4.47229 26.6932 9.54615 29.7159 15.0518 29.8239C24.3359 30.4716 32.3246 23.2387 32.3246 15.0341C32.3246 6.82957 24.3359 -0.0795216 15.0518 0.244342ZM7.06319 19.4603C6.95524 20.3239 6.19956 20.8637 5.33592 20.7557C4.68819 20.6478 4.14842 20.108 4.04047 19.4603V10.7159C4.14842 9.8523 4.9041 9.31252 5.76774 9.42048C6.41547 9.52843 6.95524 10.0682 7.06319 10.7159V19.4603ZM21.9609 17.3012H17.103C15.8075 17.3012 14.728 16.2216 14.728 14.9262C14.728 13.6307 15.8075 12.5512 17.103 12.5512H21.9609C23.2564 12.5512 24.3359 13.6307 24.3359 14.9262C24.3359 16.2216 23.2564 17.3012 21.9609 17.3012Z" fill="black"/>
<path d="M16.563 67.3921C16.7789 69.2273 18.2903 70.6307 20.1255 70.8466H24.2278C26.2789 70.6307 27.8982 69.0114 27.8982 66.9603V29.7159C24.5516 31.983 20.5573 33.1705 16.563 32.8466V67.3921Z" fill="black"/>
</svg>
