<svg width="41" height="40" viewBox="0 0 41 40" fill="none" xmlns="http://www.w3.org/2000/svg">
<rect x="1.32812" y="0.5" width="39" height="39" rx="19.5" fill="#F4F4F4"/>
<path d="M20.9281 16.4062C18.9281 16.4062 17.3344 18.0312 17.3344 20C17.3344 22 18.9281 23.5938 20.9281 23.5938C22.8969 23.5938 24.5219 22 24.5219 20C24.5219 18.0312 22.8969 16.4062 20.9281 16.4062ZM20.9281 22.3438C19.6469 22.3438 18.5844 21.3125 18.5844 20C18.5844 18.7188 19.6156 17.6875 20.9281 17.6875C22.2094 17.6875 23.2406 18.7188 23.2406 20C23.2406 21.3125 22.2094 22.3438 20.9281 22.3438ZM25.4906 16.2812C25.4906 15.8125 25.1156 15.4375 24.6469 15.4375C24.1781 15.4375 23.8031 15.8125 23.8031 16.2812C23.8031 16.75 24.1781 17.125 24.6469 17.125C25.1156 17.125 25.4906 16.75 25.4906 16.2812ZM27.8656 17.125C27.8031 16 27.5531 15 26.7406 14.1875C25.9281 13.375 24.9281 13.125 23.8031 13.0625C22.6469 13 19.1781 13 18.0219 13.0625C16.8969 13.125 15.9281 13.375 15.0844 14.1875C14.2719 15 14.0219 16 13.9594 17.125C13.8969 18.2812 13.8969 21.75 13.9594 22.9062C14.0219 24.0312 14.2719 25 15.0844 25.8438C15.9281 26.6562 16.8969 26.9062 18.0219 26.9688C19.1781 27.0312 22.6469 27.0312 23.8031 26.9688C24.9281 26.9062 25.9281 26.6562 26.7406 25.8438C27.5531 25 27.8031 24.0312 27.8656 22.9062C27.9281 21.75 27.9281 18.2812 27.8656 17.125ZM26.3656 24.125C26.1469 24.75 25.6469 25.2188 25.0531 25.4688C24.1156 25.8438 21.9281 25.75 20.9281 25.75C19.8969 25.75 17.7094 25.8438 16.8031 25.4688C16.1781 25.2188 15.7094 24.75 15.4594 24.125C15.0844 23.2188 15.1781 21.0312 15.1781 20C15.1781 19 15.0844 16.8125 15.4594 15.875C15.7094 15.2812 16.1781 14.8125 16.8031 14.5625C17.7094 14.1875 19.8969 14.2812 20.9281 14.2812C21.9281 14.2812 24.1156 14.1875 25.0531 14.5625C25.6469 14.7812 26.1156 15.2812 26.3656 15.875C26.7406 16.8125 26.6469 19 26.6469 20C26.6469 21.0312 26.7406 23.2188 26.3656 24.125Z" fill="#656C7D"/>
<rect x="1.32812" y="0.5" width="39" height="39" rx="19.5" stroke="#E9E9E9"/>
</svg>
