<svg width="41" height="40" viewBox="0 0 41 40" fill="none" xmlns="http://www.w3.org/2000/svg">
<rect x="1.32812" y="0.5" width="39" height="39" rx="19.5" fill="#F4F4F4"/>
<path d="M20.9281 12.25C16.5531 12.25 13.1781 15.4688 13.1781 19.7812C13.1781 22.0312 14.0844 24 15.6156 25.3438C15.8656 25.5938 15.8031 25.7188 15.8656 27.1562C15.8656 27.5 16.1469 27.75 16.4906 27.75C16.5531 27.75 16.6469 27.75 16.7406 27.7188C18.3656 27 18.3969 26.9375 18.6781 27C23.4594 28.3125 28.6781 25.25 28.6781 19.7812C28.6781 15.4688 25.3031 12.25 20.9281 12.25ZM25.5844 18.0625L23.3031 21.6562C23.1156 22 22.7406 22.2188 22.3344 22.2188C22.0531 22.2188 21.8344 22.125 21.6156 21.9688L19.8031 20.625C19.7406 20.5625 19.6469 20.5312 19.5219 20.5312C19.4281 20.5312 19.3344 20.5625 19.2406 20.625L16.8031 22.4688C16.4594 22.7188 16.0531 22.3125 16.2719 21.9688L18.5531 18.375C18.7406 18.0312 19.1156 17.8125 19.5219 17.8125C19.8031 17.8125 20.0531 17.9062 20.2406 18.0625L22.0531 19.4062C22.1156 19.4688 22.2094 19.5 22.3344 19.5C22.4281 19.5 22.5219 19.4688 22.6156 19.4062L25.0531 17.5625C25.3969 17.3125 25.8031 17.7188 25.5844 18.0625Z" fill="#656C7D"/>
<rect x="1.32812" y="0.5" width="39" height="39" rx="19.5" stroke="#E9E9E9"/>
</svg>
