<svg width="69" height="70" viewBox="0 0 69 70" fill="none" xmlns="http://www.w3.org/2000/svg">
<path fill-rule="evenodd" clip-rule="evenodd" d="M50.5381 7.42896H10.9188C9.83922 7.53691 8.97559 8.5085 8.97559 9.58805V23.2983H11.8904V13.1505H49.5665V63.7812H33.5892V67.7755C33.5892 68.4233 33.3733 69.071 33.0494 69.6108H50.5381C51.6176 69.6108 52.3733 68.7471 52.4813 67.7755V9.696C52.4813 8.5085 51.6176 7.53691 50.5381 7.42896ZM30.6744 11.4233C30.1347 11.4233 29.7029 10.9915 29.7029 10.4517C29.7029 9.91191 30.1347 9.48009 30.6744 9.48009C31.2142 9.48009 31.646 9.91191 31.646 10.4517C31.646 10.9915 31.2142 11.4233 30.6744 11.4233Z" fill="#1D1D1F"/>
<path fill-rule="evenodd" clip-rule="evenodd" d="M22.0383 6.02559V4.62218C22.0383 3.8665 22.686 3.21877 23.4417 3.21877H64.0326C64.7883 3.21877 65.436 3.8665 65.436 4.62218V65.4006C65.436 66.1563 64.7883 66.804 64.0326 66.804H53.8849C53.8849 66.804 53.8849 67.7756 53.8849 67.9915C53.8849 68.7472 53.4531 69.3949 52.8054 69.7188H64.0326C66.4076 69.7188 68.3508 67.7756 68.3508 65.4006V4.51423C68.3508 2.13923 66.4076 0.196045 64.0326 0.196045H23.4417C21.0667 0.196045 19.1235 2.13923 19.1235 4.51423V6.02559H22.0383Z" fill="#1D1D1F"/>
<path fill-rule="evenodd" clip-rule="evenodd" d="M30.3508 24.8097H2.06667C1.09508 24.8097 0.231445 25.6733 0.231445 26.6449V67.9915C0.231445 68.9631 1.09508 69.7188 2.06667 69.7188H30.3508C31.3224 69.7188 32.186 68.8551 32.186 67.8836V26.6449C32.078 25.6733 31.3224 24.9176 30.3508 24.8097ZM16.1008 26.6449C16.4246 26.6449 16.7485 26.9688 16.7485 27.2926C16.7485 27.6165 16.4246 27.9404 16.1008 27.9404C15.7769 27.9404 15.453 27.6165 15.453 27.2926C15.453 26.9688 15.7769 26.6449 16.1008 26.6449ZM16.2087 68.9631C15.453 68.9631 14.8053 68.3154 14.8053 67.5597C14.8053 66.804 15.453 66.1563 16.2087 66.1563C16.9644 66.1563 17.6121 66.804 17.6121 67.5597C17.6121 68.3154 16.9644 68.9631 16.2087 68.9631ZM30.6746 65.4006H1.74281V29.1279H30.6746V65.4006Z" fill="#1D1D1F"/>
</svg>
