<svg width="78" height="50" viewBox="0 0 78 50" fill="none" xmlns="http://www.w3.org/2000/svg">
<path d="M12.5989 1.49864C10.5802 2.15177 10.0026 2.8103 9.24152 5.39041C8.70714 7.22024 8.59919 7.38217 6.96907 8.61285C3.19606 11.4628 2.43498 13.5464 1.53896 23.5538C0.308277 37.2208 0.723902 44.0327 2.94237 46.5589C7.58441 51.8271 13.36 50.089 17.4299 42.1975C18.3907 40.3137 19.5458 38.3165 19.9722 37.7822L20.7495 36.8052L21.7373 37.5824C25.602 40.6592 32.1711 39.1478 34.4543 34.6407L35.0049 33.5827H39.0046H43.0043L43.5549 34.6407C45.8165 39.083 51.9807 40.5944 56.0344 37.7174L57.2759 36.8214L58.064 37.8091C58.5066 38.3597 59.5106 40.1086 60.3094 41.7171C63.3213 47.7356 65.3941 49.5006 69.2049 49.3279C72.7782 49.139 75.7037 46.9745 76.6267 43.7898C77.2799 41.5282 77.2043 31.7799 76.4648 23.5538C75.5688 13.5518 74.8077 11.4628 71.0347 8.61285C69.4046 7.38217 69.2966 7.22024 68.7623 5.39041C67.9742 2.72933 67.4398 2.14097 65.2052 1.46086C59.91 -0.142265 55.9373 1.6066 55.0412 5.96796C54.8685 6.81001 54.6796 7.65205 54.6256 7.84097C54.4907 8.33756 23.5131 8.33756 23.3836 7.84097C23.3296 7.65205 23.1407 6.81001 22.9679 5.96796C22.0665 1.61739 17.8401 -0.201641 12.5989 1.49864ZM65.2807 9.75176C66.981 11.2739 66.2037 14.07 63.9583 14.4856C62.1015 14.831 60.6657 13.6003 60.6657 11.6356C60.6657 9.2012 63.4077 8.07846 65.2807 9.75176ZM16.7983 12.2779C16.7983 14.0592 15.6054 15.9268 14.4719 15.9268C13.36 15.9268 12.2534 14.1077 12.2534 12.2995V10.5722H14.5259H16.7983V12.2779ZM57.9938 15.2574C58.9978 15.781 59.3324 16.4234 59.3324 17.7998C59.3324 20.2449 56.5904 21.3731 54.7174 19.6998C52.229 17.4813 55.0088 13.7245 57.9938 15.2574ZM71.4449 15.1549C74.1492 16.5475 73.0912 20.4771 70.0145 20.4771C68.7731 20.4771 67.3534 18.9927 67.3534 17.6702C67.3534 15.6893 69.6961 14.2589 71.4449 15.1549ZM12.1455 15.7972C14.2722 17.4165 12.75 19.6782 9.5222 19.6782H7.70316V17.4057V15.1333H9.48441C10.9634 15.1279 11.406 15.2359 12.1455 15.7972ZM21.2892 17.3356L21.2083 19.5432L19.4972 19.6242C17.8401 19.7052 17.7591 19.6782 16.7552 18.7012C14.9091 16.893 16.2586 15.1279 19.4972 15.1279H21.3702L21.2892 17.3356ZM33.3262 17.7458L33.4071 19.1654L31.1887 19.0844L28.9702 19.0035L28.8892 17.9725C28.7435 16.2344 28.8515 16.1643 31.1779 16.2452L33.2506 16.3262L33.3262 17.7458ZM48.1861 17.7998C48.0512 17.9077 47.3009 18.2154 46.4858 18.4691C45.6816 18.739 44.8665 19.0035 44.6776 19.0736C44.4347 19.1654 44.3429 18.793 44.3429 17.7242V16.2398L46.3779 16.9199C47.4952 17.2924 48.3103 17.6918 48.1861 17.7998ZM15.7782 19.5918C16.7552 20.5418 16.7929 20.6498 16.7929 22.3986V24.2177H14.5205H12.2481V22.4256C12.2481 20.7145 12.302 20.5796 13.2358 19.6188C14.4557 18.3773 14.5259 18.3611 15.7782 19.5918ZM64.9731 21.3569C66.1767 22.1611 66.5384 23.4836 65.9069 24.806C64.6384 27.4671 60.6495 26.5873 60.6657 23.6401C60.6819 21.2003 62.9543 19.9966 64.9731 21.3569ZM29.1537 26.3876C32.754 28.2174 32.9267 33.518 29.4506 35.7364C27.8583 36.7674 24.8895 36.8052 23.5779 35.8282C17.8671 31.5748 22.8168 23.1759 29.1537 26.3876ZM52.4935 25.8532C54.8361 26.4415 56.639 28.714 56.6552 31.1214C56.6821 37.0211 48.375 38.689 46.1026 33.2481C44.3915 29.1566 48.1753 24.7682 52.4935 25.8532Z" fill="black"/>
</svg>
