<svg width="18" height="19" viewBox="0 0 18 19" fill="none" xmlns="http://www.w3.org/2000/svg">
<path d="M15.9 18.225L10.3 12.625C9.8 13.025 9.225 13.3417 8.575 13.575C7.925 13.8083 7.23333 13.925 6.5 13.925C4.68333 13.925 3.146 13.2957 1.888 12.037C0.63 10.7783 0.000666667 9.24099 0 7.42499C0 5.60832 0.629333 4.07099 1.888 2.81299C3.14667 1.55499 4.684 0.925654 6.5 0.924988C8.31667 0.924988 9.854 1.55432 11.112 2.81299C12.37 4.07165 12.9993 5.60899 13 7.42499C13 8.15832 12.8833 8.84999 12.65 9.49999C12.4167 10.15 12.1 10.725 11.7 11.225L17.325 16.85C17.5083 17.0333 17.6 17.2583 17.6 17.525C17.6 17.7917 17.5 18.025 17.3 18.225C17.1167 18.4083 16.8833 18.5 16.6 18.5C16.3167 18.5 16.0833 18.4083 15.9 18.225ZM6.5 11.925C7.75 11.925 8.81267 11.4873 9.688 10.612C10.5633 9.73665 11.0007 8.67432 11 7.42499C11 6.17499 10.5623 5.11232 9.687 4.23699C8.81167 3.36165 7.74933 2.92432 6.5 2.92499C5.25 2.92499 4.18733 3.36265 3.312 4.23799C2.43667 5.11332 1.99933 6.17565 2 7.42499C2 8.67499 2.43767 9.73765 3.313 10.613C4.18833 11.4883 5.25067 11.9257 6.5 11.925Z" fill="#E9E9E9"/>
</svg>
