<svg width="41" height="40" viewBox="0 0 41 40" fill="none" xmlns="http://www.w3.org/2000/svg">
<rect x="1.32812" y="0.5" width="39" height="39" rx="19.5" fill="#F4F4F4"/>
<path d="M20.9281 12.25C16.6469 12.25 13.1781 15.7188 13.1781 20C13.1781 24.2812 16.6469 27.75 20.9281 27.75C25.2094 27.75 28.6781 24.2812 28.6781 20C28.6781 15.7188 25.2094 12.25 20.9281 12.25ZM24.7094 17.5625L23.4594 23.5625C23.3656 24 23.1156 24.0938 22.7406 23.9062L20.8031 22.4688L19.8656 23.375C19.7719 23.4688 19.6781 23.5625 19.4906 23.5625L19.6156 21.5938L23.2094 18.3438C23.3656 18.2188 23.1781 18.125 22.9594 18.25L18.5219 21.0625L16.6156 20.4688C16.2094 20.3438 16.2094 20.0312 16.7094 19.8438L24.1781 16.9688C24.5219 16.8438 24.8344 17.0625 24.7094 17.5625Z" fill="#656C7D"/>
<rect x="1.32812" y="0.5" width="39" height="39" rx="19.5" stroke="#E9E9E9"/>
</svg>
