<svg width="75" height="71" viewBox="0 0 75 71" fill="none" xmlns="http://www.w3.org/2000/svg">
<path d="M60.3623 64.9687C59.4987 64.9687 58.743 65.7244 58.743 66.588C58.743 67.4517 59.4987 68.2074 60.3623 68.2074C61.2259 68.2074 61.9816 67.4517 61.9816 66.588C61.9816 66.1562 61.7657 65.7244 61.5498 65.4005C61.2259 65.1846 60.7941 64.9687 60.3623 64.9687ZM60.3623 69.179C58.9589 69.179 57.7714 67.9915 57.7714 66.588C57.7714 65.1846 58.9589 63.9971 60.3623 63.9971C61.7657 63.9971 62.9532 65.1846 62.9532 66.588C62.9532 67.9915 61.7657 69.179 60.3623 69.179ZM63.6009 16.1733H57.1237C56.9078 16.1733 56.7998 15.9574 56.7998 15.8494C56.7998 15.7415 57.0157 15.5255 57.1237 15.5255H63.6009C63.8169 15.5255 63.9248 15.7415 63.9248 15.8494C63.9248 15.9574 63.8169 16.1733 63.6009 16.1733ZM69.7544 12.179H55.2884V19.4119H72.6691V62.9176H55.2884V65.8324C55.2884 67.5596 54.6407 69.071 53.2373 70.1506H69.7544C72.1294 70.1506 74.0725 68.2074 74.0725 65.8324V16.6051C74.1805 14.2301 72.2373 12.179 69.7544 12.179Z" fill="#1D1D1F"/>
<path d="M32.078 65.9403C31.9701 67.5596 30.6746 68.8551 28.9474 68.8551H4.76554C3.14622 68.8551 1.74281 67.6676 1.63485 65.9403V4.94601C1.74281 3.32669 3.03826 2.03123 4.76554 2.03123H8.54394C8.97576 2.03123 9.29963 2.3551 9.29963 2.78692V3.5426C9.29963 4.40623 9.94735 5.05396 10.811 4.94601H22.9019C23.7655 4.94601 24.4133 4.29828 24.4133 3.5426V2.78692C24.4133 2.3551 24.7371 2.03123 25.1689 2.03123H28.9474C30.5667 2.03123 31.9701 3.21873 32.078 4.94601V65.9403ZM15.3451 2.3551H18.2599C18.4758 2.3551 18.5837 2.46305 18.5837 2.67896C18.5837 2.89487 18.4758 3.00282 18.2599 3.00282H15.3451C15.1292 3.00282 15.0212 2.89487 15.0212 2.67896C15.0212 2.57101 15.1292 2.3551 15.3451 2.3551ZM19.9871 2.24714C20.203 2.24714 20.4189 2.46305 20.4189 2.78692C20.4189 3.00282 20.203 3.21873 19.8792 3.21873C19.6633 3.21873 19.4474 3.00282 19.4474 2.78692C19.4474 2.46305 19.6633 2.24714 19.9871 2.24714ZM28.9474 0.627824H4.76554C2.28258 0.51987 0.231445 2.46305 0.231445 4.94601V65.9403C0.3394 68.4233 2.28258 70.3665 4.76554 70.2585H29.0553C31.5383 70.3665 33.5894 68.4233 33.5894 65.9403V4.94601C33.4814 2.46305 31.4303 0.51987 28.9474 0.627824Z" fill="#1D1D1F"/>
<path d="M32.9419 70.2585H49.5669C51.8339 70.2585 53.7771 68.5313 53.7771 66.1563V10.4517C53.6692 8.18467 51.8339 6.4574 49.5669 6.4574H34.993V10.7756H43.5214C44.2771 10.7756 44.9248 10.2358 44.9248 9.48013V8.61649C44.9248 8.29262 45.2487 7.96876 45.6805 7.96876H49.5669C51.0783 7.96876 52.3737 9.04831 52.3737 10.5597V66.1563C52.3737 67.6676 51.0783 68.8551 49.5669 68.8551H34.1294C33.8055 69.2869 33.4817 69.8267 32.9419 70.2585ZM36.9362 8.29263H39.851C40.0669 8.29263 40.1748 8.50853 40.1748 8.61649C40.1748 8.72444 39.9589 8.94035 39.851 8.94035H36.9362C36.7203 8.94035 36.6123 8.72444 36.6123 8.61649C36.6123 8.50853 36.8283 8.29263 36.9362 8.29263ZM41.3623 8.18467C41.5783 8.18467 41.7942 8.40058 41.7942 8.61649C41.7942 8.8324 41.5783 9.04831 41.3623 9.04831C41.1464 9.04831 40.9305 8.8324 40.9305 8.61649C40.9305 8.40058 41.1464 8.18467 41.3623 8.18467Z" fill="#1D1D1F"/>
</svg>
