<svg width="15" height="15" viewBox="0 0 15 15" fill="none" xmlns="http://www.w3.org/2000/svg">
<path d="M7.92812 3.40625C5.92812 3.40625 4.33437 5.03125 4.33437 7C4.33437 9 5.92812 10.5938 7.92812 10.5938C9.89687 10.5938 11.5219 9 11.5219 7C11.5219 5.03125 9.89687 3.40625 7.92812 3.40625ZM7.92812 9.34375C6.64687 9.34375 5.58437 8.3125 5.58437 7C5.58437 5.71875 6.61562 4.6875 7.92812 4.6875C9.20937 4.6875 10.2406 5.71875 10.2406 7C10.2406 8.3125 9.20937 9.34375 7.92812 9.34375ZM12.4906 3.28125C12.4906 2.8125 12.1156 2.4375 11.6469 2.4375C11.1781 2.4375 10.8031 2.8125 10.8031 3.28125C10.8031 3.75 11.1781 4.125 11.6469 4.125C12.1156 4.125 12.4906 3.75 12.4906 3.28125ZM14.8656 4.125C14.8031 3 14.5531 2 13.7406 1.1875C12.9281 0.375 11.9281 0.125 10.8031 0.0625C9.64687 0 6.17812 0 5.02187 0.0625C3.89687 0.125 2.92812 0.375 2.08437 1.1875C1.27187 2 1.02187 3 0.959375 4.125C0.896875 5.28125 0.896875 8.75 0.959375 9.90625C1.02187 11.0312 1.27187 12 2.08437 12.8438C2.92812 13.6562 3.89687 13.9062 5.02187 13.9688C6.17812 14.0312 9.64687 14.0312 10.8031 13.9688C11.9281 13.9062 12.9281 13.6562 13.7406 12.8438C14.5531 12 14.8031 11.0312 14.8656 9.90625C14.9281 8.75 14.9281 5.28125 14.8656 4.125ZM13.3656 11.125C13.1469 11.75 12.6469 12.2188 12.0531 12.4688C11.1156 12.8438 8.92812 12.75 7.92812 12.75C6.89687 12.75 4.70937 12.8438 3.80312 12.4688C3.17812 12.2188 2.70937 11.75 2.45937 11.125C2.08437 10.2188 2.17812 8.03125 2.17812 7C2.17812 6 2.08437 3.8125 2.45937 2.875C2.70937 2.28125 3.17812 1.8125 3.80312 1.5625C4.70937 1.1875 6.89687 1.28125 7.92812 1.28125C8.92812 1.28125 11.1156 1.1875 12.0531 1.5625C12.6469 1.78125 13.1156 2.28125 13.3656 2.875C13.7406 3.8125 13.6469 6 13.6469 7C13.6469 8.03125 13.7406 10.2188 13.3656 11.125Z" fill="#656C7D"/>
</svg>
