<svg width="16" height="16" viewBox="0 0 16 16" fill="none" xmlns="http://www.w3.org/2000/svg">
<path d="M7.92812 0.25C3.64687 0.25 0.178125 3.71875 0.178125 8C0.178125 12.2812 3.64687 15.75 7.92812 15.75C12.2094 15.75 15.6781 12.2812 15.6781 8C15.6781 3.71875 12.2094 0.25 7.92812 0.25ZM11.7094 5.5625L10.4594 11.5625C10.3656 12 10.1156 12.0938 9.74062 11.9062L7.80312 10.4688L6.86562 11.375C6.77187 11.4688 6.67812 11.5625 6.49062 11.5625L6.61562 9.59375L10.2094 6.34375C10.3656 6.21875 10.1781 6.125 9.95937 6.25L5.52187 9.0625L3.61562 8.46875C3.20937 8.34375 3.20937 8.03125 3.70937 7.84375L11.1781 4.96875C11.5219 4.84375 11.8344 5.0625 11.7094 5.5625Z" fill="#656C7D"/>
</svg>
