<svg width="16" height="17" viewBox="0 0 16 17" fill="none" xmlns="http://www.w3.org/2000/svg">
<path d="M7.92813 0.25C3.55313 0.25 0.178125 3.46875 0.178125 7.78125C0.178125 10.0312 1.08438 12 2.61563 13.3438C2.86563 13.5938 2.80313 13.7188 2.86563 15.1562C2.86563 15.5 3.14688 15.75 3.49063 15.75C3.55313 15.75 3.64688 15.75 3.74063 15.7188C5.36563 15 5.39688 14.9375 5.67813 15C10.4594 16.3125 15.6781 13.25 15.6781 7.78125C15.6781 3.46875 12.3031 0.25 7.92813 0.25ZM12.5844 6.0625L10.3031 9.65625C10.1156 10 9.74063 10.2188 9.33438 10.2188C9.05313 10.2188 8.83438 10.125 8.61563 9.96875L6.80313 8.625C6.74063 8.5625 6.64688 8.53125 6.52188 8.53125C6.42813 8.53125 6.33438 8.5625 6.24063 8.625L3.80313 10.4688C3.45938 10.7188 3.05313 10.3125 3.27188 9.96875L5.55313 6.375C5.74063 6.03125 6.11563 5.8125 6.52188 5.8125C6.80313 5.8125 7.05313 5.90625 7.24063 6.0625L9.05313 7.40625C9.11563 7.46875 9.20938 7.5 9.33438 7.5C9.42813 7.5 9.52188 7.46875 9.61563 7.40625L12.0531 5.5625C12.3969 5.3125 12.8031 5.71875 12.5844 6.0625Z" fill="#656C7D"/>
</svg>
